<?xml version="1.0" encoding="UTF-8" standalone="no"?>
<svg
   xmlns:dc="http://purl.org/dc/elements/1.1/"
   xmlns:cc="http://creativecommons.org/ns#"
   xmlns:rdf="http://www.w3.org/1999/02/22-rdf-syntax-ns#"
   xmlns:svg="http://www.w3.org/2000/svg"
   xmlns="http://www.w3.org/2000/svg"
   xmlns:sodipodi="http://sodipodi.sourceforge.net/DTD/sodipodi-0.dtd"
   xmlns:inkscape="http://www.inkscape.org/namespaces/inkscape"
   width="87.390808"
   height="23.000839"
   viewBox="0 0 87.390808 23.000839"
   version="1.1"
   id="svg839"
   sodipodi:docname="logo (8).svg"
   inkscape:version="1.0 (4035a4f, 2020-05-01)">
  <metadata
     id="metadata845">
    <rdf:RDF>
      <cc:Work
         rdf:about="">
        <dc:format>image/svg+xml</dc:format>
        <dc:type
           rdf:resource="http://purl.org/dc/dcmitype/StillImage" />
        <dc:title></dc:title>
      </cc:Work>
    </rdf:RDF>
  </metadata>
  <defs
     id="defs843" />
  <sodipodi:namedview
     inkscape:document-rotation="0"
     pagecolor="#ffffff"
     bordercolor="#666666"
     borderopacity="1"
     objecttolerance="10"
     gridtolerance="10"
     guidetolerance="10"
     inkscape:pageopacity="0"
     inkscape:pageshadow="2"
     inkscape:window-width="1440"
     inkscape:window-height="793"
     id="namedview841"
     showgrid="false"
     inkscape:zoom="6.5708926"
     inkscape:cx="44.000002"
     inkscape:cy="12.000839"
     inkscape:window-x="0"
     inkscape:window-y="25"
     inkscape:window-maximized="1"
     inkscape:current-layer="svg839"
     fit-margin-top="0"
     fit-margin-left="0"
     fit-margin-right="0"
     fit-margin-bottom="0" />
  <g
     fill="none"
     fill-rule="evenodd"
     id="g837"
     transform="translate(2.4670592e-6,8.3857583e-4)">
    <path
       fill="#EB0028"
       d="M 10.999997,17.999161 H 1.3215335 c -0.36584897,0 -0.69649961,0.150858 -0.93542135,0.395051 C 0.1471904,18.637321 -2.4670592e-6,18.97268 -2.4670592e-6,19.343854 v 2.310615 c 0,0.370089 0.1461262470592,0.705448 0.3829147670592,0.947471 0.23998836,0.245279 0.57170562,0.397221 0.9386212,0.397221 h 9.6784635 z m 16.617086,0.398307 c -0.238922,-0.244193 -0.571706,-0.398307 -0.938621,-0.398307 h -9.678465 v 5 h 9.678465 c 0.366915,0 0.698632,-0.151942 0.938621,-0.398307 0.236788,-0.242023 0.382914,-0.577382 0.382914,-0.946385 v -2.310615 c 0,-0.369003 -0.146126,-0.703277 -0.382914,-0.946386 z m 0,-8.9990877 C 27.378161,9.152123 27.045377,8.9991614 26.678462,8.9991614 h -9.678465 v 4.9999996 h 9.678465 c 0.366915,0 0.698632,-0.154046 0.938621,-0.399219 0.236788,-0.243002 0.382914,-0.577131 0.382914,-0.945975 v -2.310696 c 0,-0.367759 -0.146126,-0.7018878 -0.382914,-0.9448907 z M 10.999997,8.9991614 1.3215335,9.0002463 c -0.36584897,0 -0.69649961,0.1507919 -0.93542135,0.3948795 C 0.1471904,9.6381287 -2.4670592e-6,9.9733424 -2.4670592e-6,10.343271 v 2.310696 c 0,0.368844 0.1461262470592,0.704058 0.3829147670592,0.94706 0.23998836,0.245173 0.57170562,0.398134 0.9386212,0.398134 h 9.6784635 z m 15.654463,-4 H 1.3455353 c -0.3735795,0 -0.71132142,-0.1519427 -0.95566847,-0.3972216 C 0.14877774,4.3588315 -2.4670592e-6,4.0245576 -2.4670592e-6,3.6544686 V 1.3438543 C -2.4670592e-6,0.97267998 0.14986372,0.63732075 0.3920388,0.39421243 0.63638585,0.15001882 0.97304179,-8.3857583e-4 1.3455353,-8.3857583e-4 H 26.65446 c 0.373579,0 0.712407,0.15194269583 0.955668,0.39830692583 0.241089,0.24310831 0.389869,0.57738224 0.389869,0.94638595 v 2.3106143 c 0,0.3690037 -0.14878,0.7032776 -0.389869,0.9463859 -0.244347,0.2463642 -0.582089,0.3983069 -0.955668,0.3983069 z"
       id="path833"
       style="fill:#e4002b;fill-opacity:1" />
    <path
       fill="#004691"
       d="M 85.239005,0 H 83.723251 C 81.784522,0 81.662164,0.21457415 81.512382,0.5519146 L 78.51252,7.8506382 C 77.512566,10.272871 76.480967,12.879787 76.087525,14.229148 75.723618,12.879787 75.058037,11.070318 73.663586,7.7278719 L 70.664778,0.5519146 C 70.482297,0.1227663 69.724948,0 68.087892,0 H 66.391768 C 64.725177,0 64.390805,0.15372476 64.390805,0.49106521 V 22.508935 C 64.390805,22.908192 64.725177,23 66.451892,23 h 0.93983 c 1.696125,0 2.18028,-0.09181 2.18028,-0.491065 V 9.4455326 h 0.122357 c 0,0 0.150837,0.6127644 0.394496,1.1646784 l 3.454483,8.187979 c 0.150837,0.368299 0.333318,0.523091 1.93873,0.523091 h 1.030544 c 1.634946,0 1.757303,-0.123834 1.909195,-0.523091 l 3.149644,-7.880529 C 81.875235,10.181063 82.08725,9.4455326 82.08725,9.4455326 h 0.121303 V 22.508935 C 82.208553,22.908192 82.540816,23 84.329764,23 h 0.909241 c 1.66659,0 2.1518,-0.09181 2.1518,-0.491065 V 0.49106521 C 87.390805,0.15372476 86.905595,0 85.239005,0 Z m -25.8482,0.49106521 C 59.390805,0.15372476 58.922468,0 57.314853,0 H 56.37818 C 54.681988,0 54.390805,0.15372476 54.390805,0.49106521 V 22.508935 C 54.390805,22.908192 54.681988,23 56.37818,23 h 0.936673 c 1.608633,0 2.075952,-0.09181 2.075952,-0.491065 z M 50.831494,0 c 0.464109,0 0.559311,0.06191692 0.559311,1.6867022 v 1.5030866 c 0,1.563936 -0.124412,1.7475516 -0.559311,1.7475516 H 45.547798 V 22.508935 C 45.547798,22.908192 45.050153,23 43.279184,23 H 42.34664 c -1.802342,0 -2.112829,-0.09181 -2.112829,-0.491065 V 4.9373404 h -5.283696 c -0.435981,0 -0.55931,-0.1227662 -0.55931,-1.7475516 V 1.6867022 C 34.390805,0 34.483843,0 34.950115,0 Z"
       id="path835"
       style="fill:#004c97;fill-opacity:1" />
  </g>
</svg>
